{"title":"Take Shelter [2011] LIMITED BRRip XviD - CODY","uid":7007537,"size":946751861,"categoryP":"video","categoryS":"movies","magnet":"?xt=urn:btih:f0bce67909ca322f456c5ab230b112bf250c7679&amp;dn=Take+Shelter+%5B2011%5D+LIMITED+BRRip+XviD+-+CODY&amp;tr=udp%3A%2F%2Ftracker.openbittorrent.com%3A80&amp;tr=udp%3A%2F%2Fopen.demonii.com%3A1337&amp;tr=udp%3A%2F%2Ftracker.coppersurfer.tk%3A6969&amp;tr=udp%3A%2F%2Fexodus.desync.com%3A6969","seeders":0,"leechers":1,"uploader":"CODYBOSS1969","files":6,"time":1328326470,"description":"General\nComplete name                            : Take Shelter [2011] LIMITED BRRip XviD - CODY.avi\nFormat                                   : AVI\nFormat/Info                              : Audio Video Interleave\nFile size                                : 902 MiB\nDuration                                 : 2h 1mn\nOverall bit rate                         : 1 042 Kbps\nWriting application                      : VirtualDubMod 1.5.10.3 | www.virtualdub-fr.org || (build 2550/release)\nWriting library                          : VirtualDubMod build 2550/release\n\nVideo\nID                                       : 0\nFormat                                   : MPEG-4 Visual\nFormat profile                           : Advanced Simple@L5\nFormat settings, BVOP                    : 4\nFormat settings, QPel                    : No\nFormat settings, GMC                     : No warppoints\nFormat settings, Matrix                  : Default (H.263)\nCodec ID                                 : XVID\nCodec ID/Hint                            : XviD\nDuration                                 : 2h 1mn\nBit rate                                 : 905 Kbps\nWidth                                    : 720 pixels\nHeight                                   : 304 pixels\nDisplay aspect ratio                     : 2.35:1\nFrame rate                               : 23.976 fps\nColor space                              : YUV\nChroma subsampling                       : 4:2:0\nBit depth                                : 8 bits\nScan type                                : Progressive\nCompression mode                         : Lossy\nBits/(Pixel*Frame)                       : 0.172\nStream size                              : 784 MiB (87%)\nWriting library                          : XviD 1.2.1 (UTC 2008-12-04)\n\nAudio\nID                                       : 1\nFormat                                   : MPEG Audio\nFormat version                           : Version 1\nFormat profile                           : Layer 3\nCodec ID                                 : 55\nCodec ID/Hint                            : MP3\nDuration                                 : 2h 1mn\nBit rate mode                            : Constant\nBit rate                                 : 128 Kbps\nChannel(s)                               : 2 channels\nSampling rate                            : 48.0 KHz\nCompression mode                         : Lossy\nStream size                              : 111 MiB (12%)\nAlignment                                : Aligned on interleaves\nInterleave, duration                     : 42 ms (1.00 video frame)\nInterleave, preload duration             : 504 ms\nWriting library                          : LAME3.99.1\n\n\n\n\n\nIMDB link:                                &lt;a href=&quot; http://www.imdb.com/title/tt1675192/&quot; rel=&quot;nofollow&quot; target=&quot;_NEW&quot;&gt; http://www.imdb.com/title/tt1675192/&lt;/a&gt;\n\n\n\n\n\nSubtitles included                       : English, Romanian\n\n\n\n\n\nPlease seed at least 1,5:1 . This way this torrent has a chance to survive !\n\n\n\n\n\nThanks. Enjoy !!!\t\t","torrent":{"xt":"urn:btih:f0bce67909ca322f456c5ab230b112bf250c7679","amp;dn":"Take+Shelter+%5B2011%5D+LIMITED+BRRip+XviD+-+CODY","amp;tr":["udp%3A%2F%2Ftracker.openbittorrent.com%3A80","udp%3A%2F%2Fopen.demonii.com%3A1337","udp%3A%2F%2Ftracker.coppersurfer.tk%3A6969","udp%3A%2F%2Fexodus.desync.com%3A6969"],"infoHash":"f0bce67909ca322f456c5ab230b112bf250c7679","infoHashBuffer":{"type":"Buffer","data":[240,188,230,121,9,202,50,47,69,108,90,178,48,177,18,191,37,12,118,121]},"announce":[],"urlList":[]}}